# File created by Blade
# Date/Time:  Wed Jan 21 19:09:01 2015
#---------------------------------------------------------
:version 1.10
:name HOM
:units
  mass 1.0
  length 1.000000
  angle deg
:documentation
     Acclaim Skeleton File
:root
   axis xyz
   order TX TY TZ RX RY RZ
   position 0.000000 0.000000 0.000000
   orientation 0 0 0
:bonedata
   begin
      id 1
      name RightUpLeg_dum
      direction -1.000000 0.000000 0.000000
      length 3.693983
      axis 0.0 0.0 0.0 xyz
   end
   begin
      id 2
      name LeftUpLeg_dum
      direction 1.000000 0.000000 0.000000
      length 3.693983
      axis 0.0 0.0 0.0 xyz
   end
   begin
      id 3
      name Spine_dum
      direction 0.000000 1.000000 0.000000
      length 2.392956
      axis 0.0 0.0 0.0 xyz
   end
   begin
      id 4
      name RightUpLeg
      direction 0.000000 -1.000000 0.000000
      length 15.795667
      axis 0.0 0.0 0.0 xyz
      dof rx ry rz
   end
   begin
      id 5
      name RightLeg
      direction 0.000000 -1.000000 0.000000
      length 14.766989
      axis 0.0 0.0 0.0 xyz
      dof rx ry rz
   end
   begin
      id 6
      name RightFoot
      direction 0.000000 -0.258819 0.965926
      length 4.962790
      axis 15.0 0.0 0.0 xyz
      dof rx ry rz
   end
   begin
      id 7
      name RightToeBase
      direction 0.000000 0.000000 1.000000
      length 2.952750
      axis 0.0 0.0 0.0 xyz
      dof rx ry rz
   end
   begin
      id 8
      name LeftUpLeg
      direction 0.000000 -1.000000 0.000000
      length 15.795667
      axis 0.0 0.0 0.0 xyz
      dof rx ry rz
   end
   begin
      id 9
      name LeftLeg
      direction 0.000000 -1.000000 0.000000
      length 14.766989
      axis 0.0 0.0 0.0 xyz
      dof rx ry rz
   end
   begin
      id 10
      name LeftFoot
      direction 0.000000 -0.258819 0.965926
      length 4.962790
      axis 15.0 0.0 0.0 xyz
      dof rx ry rz
   end
   begin
      id 11
      name LeftToeBase
      direction 0.000000 0.000000 1.000000
      length 2.952750
      axis 0.0 0.0 0.0 xyz
      dof rx ry rz
   end
   begin
      id 12
      name Spine
      direction 0.000000 1.000000 0.000000
      length 0.000000
      axis 0.0 0.0 0.0 xyz
      dof rx ry rz
   end
   begin
      id 13
      name Spine_dum1
      direction 0.000000 1.000000 0.000000
      length 13.207411
      axis 0.0 0.0 0.0 xyz
   end
   begin
      id 14
      name Spine_dum2
      direction 0.000000 1.000000 0.000000
      length 13.207411
      axis 0.0 0.0 0.0 xyz
   end
   begin
      id 15
      name Spine_dum3
      direction 0.000000 1.000000 0.000000
      length 19.250100
      axis 0.0 0.0 0.0 xyz
   end
   begin
      id 16
      name RightShoulder
      direction -1.000000 0.000000 0.000000
      length 8.140465
      axis 0.0 0.0 90.0 xyz
      dof rx ry rz
   end
   begin
      id 17
      name RightArm
      direction -1.000000 0.000000 0.000000
      length 10.649840
      axis 0.0 0.0 90.0 xyz
      dof rx ry rz
   end
   begin
      id 18
      name RightForeArm
      direction -1.000000 0.000000 0.000000
      length 8.304624
      axis 0.0 0.0 90.0 xyz
      dof ry rz rx
   end
   begin
      id 19
      name RightHand
      direction -1.000000 0.000000 0.000000
      length 0.000000
      axis 0.0 0.0 90.0 xyz
      dof rx ry rz
   end
   begin
      id 20
      name RightHand_dum1
      direction -1.000000 0.000000 0.000000
      length 3.937000
      axis 0.0 0.0 90.0 xyz
   end
   begin
      id 21
      name RightHand_dum2
      direction 0.000000 0.000000 0.000000
      length 0.000000
      axis 0.0 0.0 90.0 xyz
   end
   begin
      id 22
      name RightHandThumb1
      direction 0.000000 0.000000 1.000000
      length 3.937000
      axis 0.0 0.0 90.0 xyz
      dof rx rz ry
   end
   begin
      id 23
      name LeftShoulder
      direction 1.000000 0.000000 0.000000
      length 8.140465
      axis 0.0 0.0 -90.0 xyz
      dof rx ry rz
   end
   begin
      id 24
      name LeftArm
      direction 1.000000 0.000000 0.000000
      length 10.649840
      axis 0.0 0.0 -90.0 xyz
      dof rx ry rz
   end
   begin
      id 25
      name LeftForeArm
      direction 1.000000 0.000000 0.000000
      length 8.304624
      axis 0.0 0.0 -90.0 xyz
      dof ry rz rx
   end
   begin
      id 26
      name LeftHand
      direction 1.000000 0.000000 0.000000
      length 0.000000
      axis 0.0 0.0 -90.0 xyz
      dof rx ry rz
   end
   begin
      id 27
      name LeftHand_dum1
      direction 1.000000 0.000000 0.000000
      length 3.937000
      axis 0.0 0.0 -90.0 xyz
   end
   begin
      id 28
      name LeftHand_dum2
      direction 0.000000 0.000000 0.000000
      length 0.000000
      axis 0.0 0.0 -90.0 xyz
   end
   begin
      id 29
      name LeftHandThumb1
      direction 0.000000 0.000000 1.000000
      length 3.937000
      axis 0.0 0.0 -90.0 xyz
      dof rx rz ry
   end
   begin
      id 30
      name Head
      direction 0.000000 1.000000 0.000000
      length 4.527550
      axis 0.0 0.0 0.0 xyz
      dof rx ry rz
   end
:hierarchy
   begin
      root RightUpLeg_dum LeftUpLeg_dum Spine_dum
      RightUpLeg_dum RightUpLeg
      LeftUpLeg_dum LeftUpLeg
      Spine_dum Spine
      RightUpLeg RightLeg
      RightLeg RightFoot
      RightFoot RightToeBase
      LeftUpLeg LeftLeg
      LeftLeg LeftFoot
      LeftFoot LeftToeBase
      Spine Spine_dum1 Spine_dum2 Spine_dum3
      Spine_dum1 RightShoulder
      Spine_dum2 LeftShoulder
      Spine_dum3 Head
      RightShoulder RightArm
      RightArm RightForeArm
      RightForeArm RightHand
      RightHand RightHand_dum1 RightHand_dum2
      RightHand_dum2 RightHandThumb1
      LeftShoulder LeftArm
      LeftArm LeftForeArm
      LeftForeArm LeftHand
      LeftHand LeftHand_dum1 LeftHand_dum2
      LeftHand_dum2 LeftHandThumb1
   end

# File created by Blade
# Date/Time:  Wed Jan 21 19:08:52 2015
# Frame Rate: 120.000 fps
#------------------------------------------------------
:FULLY-SPECIFIED
:DEGREES
920
root -0.585518 31.787613 -7.570617 51.387579 32.097276 10.695962
RightUpLeg -51.801180 4.457707 7.569310
RightLeg 4.455615 -0.000000 -0.000000
RightFoot -4.922738 -0.568882 7.379084
RightToeBase 22.411918 -0.000000 -0.000000
LeftUpLeg -36.906707 -20.324886 -1.779443
LeftLeg -4.365258 -0.000000 0.000000
LeftFoot -4.428083 -17.568210 -8.017748
LeftToeBase 11.962995 -0.000000 -0.000000
Spine -46.130850 -20.018275 2.814648
RightShoulder -22.909273 4.911375 -36.314021
RightArm -9.347283 -9.622628 74.109516
RightForeArm 14.574115 -0.000000 -6.464217
RightHand 12.022567 -0.000000 5.225122
RightHandThumb1 -24.326973 -0.000000 -32.862282
LeftShoulder -7.267166 6.823475 23.287770
LeftArm 15.005318 22.112543 -82.820663
LeftForeArm 7.235507 0.000000 5.793699
LeftHand -18.474517 -0.000000 1.107940
LeftHandThumb1 -26.253704 0.000000 33.147579
Head -3.993196 -14.249507 14.787536
921
root -0.595012 31.787817 -7.577712 51.350472 32.049624 10.702057
RightUpLeg -51.755916 4.421193 7.604506
RightLeg 4.409040 -0.000000 -0.000000
RightFoot -4.851125 -0.469520 7.341125
RightToeBase 22.425461 -0.000000 -0.000000
LeftUpLeg -36.901936 -20.349104 -1.784233
LeftLeg -4.348106 -0.000000 0.000000
LeftFoot -4.498522 -17.452072 -7.970397
LeftToeBase 12.102419 -0.000000 -0.000000
Spine -46.195107 -19.990008 2.908534
RightShoulder -22.923822 4.872938 -36.182838
RightArm -9.522444 -9.553954 74.787095
RightForeArm 14.655580 0.000000 -6.459125
RightHand 12.183652 -0.000000 5.346466
RightHandThumb1 -24.326973 -0.000000 -32.862282
LeftShoulder -7.301833 6.804908 23.319433
LeftArm 14.805080 22.179167 -83.025795
LeftForeArm 7.054654 0.000000 5.621681
LeftHand -18.513716 -0.000000 0.915670
LeftHandThumb1 -26.253704 0.000000 33.147579
Head -3.932604 -14.205609 14.812379
922
root -0.602627 31.787589 -7.585761 51.325589 32.000044 10.704651
RightUpLeg -51.718320 4.372040 7.653226
RightLeg 4.350776 -0.000000 -0.000000
RightFoot -4.763848 -0.342937 7.335518
RightToeBase 22.408254 -0.000000 -0.000000
LeftUpLeg -36.898230 -20.386199 -1.768424
LeftLeg -4.369255 -0.000000 0.000000
LeftFoot -4.497148 -17.348258 -7.987026
LeftToeBase 12.072169 -0.000000 -0.000000
Spine -46.268038 -19.931310 2.968808
RightShoulder -22.939528 4.734059 -35.999526
RightArm -9.597919 -9.486575 75.431520
RightForeArm 14.694087 -0.000000 -6.532510
RightHand 12.174167 -0.000000 5.393982
RightHandThumb1 -24.326973 -0.000000 -32.862282
LeftShoulder -7.301599 6.859067 23.363365
LeftArm 14.725446 22.362804 -83.195109
LeftForeArm 6.870646 0.000000 5.419580
LeftHand -18.350814 -0.000000 0.651205
LeftHandThumb1 -26.253704 0.000000 33.147579
Head -3.861010 -14.199319 14.870500
923
root -0.610173 31.787254 -7.592279 51.294046 31.946927 10.697738
RightUpLeg -51.661191 4.338559 7.693434
RightLeg 4.261692 -0.000000 -0.000000
RightFoot -4.665001 -0.228220 7.325448
RightToeBase 22.427064 -0.000000 -0.000000
LeftUpLeg -36.883598 -20.407638 -1.756405
LeftLeg -4.400132 -0.000000 0.000000
LeftFoot -4.506982 -17.242844 -8.007045
LeftToeBase 12.215686 -0.000000 -0.000000
Spine -46.338405 -19.864374 3.032813
RightShoulder -22.982487 4.663777 -35.843049
RightArm -9.749254 -9.394080 76.041533
RightForeArm 14.809742 -0.000000 -6.513214
RightHand 12.195672 -0.000000 5.465011
RightHandThumb1 -24.326973 -0.000000 -32.862282
LeftShoulder -7.307173 6.915108 23.384510
LeftArm 14.623747 22.427249 -83.377908
LeftForeArm 6.687033 0.000000 5.271960
LeftHand -18.417624 0.000000 0.645655
LeftHandThumb1 -26.253704 0.000000 33.147579
Head -3.784521 -14.184954 14.906367
